<?xml version="1.0" encoding="UTF-8"?>
<svg id="Layer_1" data-name="Layer 1" xmlns="http://www.w3.org/2000/svg" viewBox="0 0 26 26.22">
  <defs>
    <style>
      .cls-1 {
        fill: #af71ff;
      }
    </style>
  </defs>
  <path class="cls-1" d="M0,3v18c0,.46.31.86.76.97,0,0,8.16,2.03,8.24,2.03.16,0,.31-.04.45-.1l7.67-3.84,7.64,1.91c.08.02.16.03.24.03.55,0,1-.45,1-1V3c0-.46-.31-.86-.76-.97L17.24.03c-.23-.06-.48-.03-.69.07l-7.67,3.84L1.24,2.03c-.3-.07-.61,0-.86.18C.14,2.4,0,2.69,0,3ZM16,18.38l-6,3V5.62l6-3v15.76ZM24,19.72l-6-1.5V2.28l6,1.5v15.94ZM2,4.28l6,1.5v15.94l-6-1.5V4.28Z"/>
  <polyline class="cls-1" points="17.73 26.22 6.43 23.38 16.88 18.14"/>
</svg>